<?xml version="1.0" encoding="UTF-8"?>
<svg version="1.1" xmlns="http://www.w3.org/2000/svg" width="180" height="180">
<path d="M0 0 C59.4 0 118.8 0 180 0 C180 59.4 180 118.8 180 180 C120.6 180 61.2 180 0 180 C0 120.6 0 61.2 0 0 Z " fill="#000000" transform="translate(0,0)"/>
<path d="M0 0 C0.680625 -0.02835937 1.36125 -0.05671875 2.0625 -0.0859375 C4 0.375 4 0.375 5.70703125 1.9453125 C7.44467244 5.21060803 7.51711614 7.94470858 7.6875 11.625 C7.78611328 13.51992187 7.78611328 13.51992187 7.88671875 15.453125 C7.92410156 16.41734375 7.96148437 17.3815625 8 18.375 C5.33333333 18.375 2.66666667 18.375 0 18.375 C-0.99 18.41625 -1.98 18.4575 -3 18.5 C-6 18.375 -6 18.375 -8 16.375 C-8.125 14 -8.125 14 -7 11.375 C-4.46544483 9.71553335 -1.8007053 8.51697323 1 7.375 C1 5.725 1 4.075 1 2.375 C0.01 2.375 -0.98 2.375 -2 2.375 C-2.33 4.025 -2.66 5.675 -3 7.375 C-4.32 7.045 -5.64 6.715 -7 6.375 C-7 5.055 -7 3.735 -7 2.375 C-4.05916436 0.41444291 -3.31872048 0.06285455 0 0 Z " fill="#E7E7E7" transform="translate(119,85.625)"/>
<path d="M0 0 C4.62 0 9.24 0 14 0 C14.33 1.65 14.66 3.3 15 5 C13.68 5.33 12.36 5.66 11 6 C10.34 5.01 9.68 4.02 9 3 C8.67 7.62 8.34 12.24 8 17 C8.66 17.33 9.32 17.66 10 18 C6.7 18 3.4 18 0 18 C0.66 17.67 1.32 17.34 2 17 C1.85941524 14.54126232 1.71277001 12.08314825 1.5625 9.625 C1.52318359 8.92632812 1.48386719 8.22765625 1.44335938 7.5078125 C1.25719866 3.62639508 1.25719866 3.62639508 0 0 Z " fill="#EAEAEA" transform="translate(95,86)"/>
<path d="M0 0 C0.99 0 1.98 0 3 0 C4.50272459 3.81143177 6.00172313 7.62431787 7.5 11.4375 C7.92925781 12.52611328 8.35851562 13.61472656 8.80078125 14.73632812 C9.20683594 15.77080078 9.61289063 16.80527344 10.03125 17.87109375 C10.40830078 18.82943115 10.78535156 19.78776855 11.17382812 20.77514648 C12 23 12 23 12 24 C9.03 24 6.06 24 3 24 C3.66 23.67 4.32 23.34 5 23 C4.6390625 22.01257813 4.278125 21.02515625 3.90625 20.0078125 C3.43733319 18.71360209 2.96859231 17.41932794 2.5 16.125 C2.26152344 15.47402344 2.02304688 14.82304688 1.77734375 14.15234375 C0 9.2265625 0 9.2265625 0 7 C-0.66 7 -1.32 7 -2 7 C-2.33 7.66 -2.66 8.32 -3 9 C-2.5020163 5.26512223 -2.12508244 3.18762365 0 0 Z " fill="#EBEBEB" transform="translate(62,80)"/>
<path d="M0 0 C1.65 0 3.3 0 5 0 C5.03738281 1.05960937 5.07476562 2.11921875 5.11328125 3.2109375 C5.17893258 4.59899424 5.24538021 5.98701349 5.3125 7.375 C5.33505859 8.07367188 5.35761719 8.77234375 5.38085938 9.4921875 C5.46984296 11.77288941 5.46984296 11.77288941 6 15 C6.99 15.66 7.98 16.32 9 17 C7.02 17.33 5.04 17.66 3 18 C0.54394629 15.44725126 0.01197061 14.14109357 -0.29296875 10.546875 C-0.25816406 9.29390625 -0.22335938 8.0409375 -0.1875 6.75 C-0.16042969 5.48671875 -0.13335937 4.2234375 -0.10546875 2.921875 C-0.07066406 1.95765625 -0.03585938 0.9934375 0 0 Z " fill="#E9E9E9" transform="translate(76,87)"/>
<path d="M0 0 C0.25 6.625 0.25 6.625 -2 10 C-5 10.3125 -5 10.3125 -8 10 C-8.66 9.34 -9.32 8.68 -10 8 C-10 5.5625 -10 5.5625 -9 3 C-5.79266696 0.97798569 -3.80845564 0 0 0 Z " fill="#D0D0D0" transform="translate(121,94)"/>
<path d="M0 0 C1.65 0 3.3 0 5 0 C5.06058594 0.97582031 5.12117188 1.95164062 5.18359375 2.95703125 C5.26738281 4.22933594 5.35117188 5.50164062 5.4375 6.8125 C5.51871094 8.07707031 5.59992188 9.34164062 5.68359375 10.64453125 C5.87184547 13.99181893 5.87184547 13.99181893 7 17 C4.69 17 2.38 17 0 17 C0 11.33333333 0 5.66666667 0 0 Z " fill="#F7F7F7" transform="translate(86,87)"/>
<path d="M0 0 C0.66 0 1.32 0 2 0 C3.25664978 2.90600261 4 4.79604584 4 8 C1.69 8 -0.62 8 -3 8 C-3.33 10.64 -3.66 13.28 -4 16 C-3.34 16.33 -2.68 16.66 -2 17 C-4.31 17 -6.62 17 -9 17 C-8.5875 16.38125 -8.175 15.7625 -7.75 15.125 C-5.39270419 10.9155432 -3.72127305 6.49977472 -2 2 C-1.34 2 -0.68 2 0 2 C0 1.34 0 0.68 0 0 Z " fill="#B3B3B3" transform="translate(60,87)"/>
<path d="M0 0 C4.62 0 9.24 0 14 0 C14.33 1.65 14.66 3.3 15 5 C13.68 5.33 12.36 5.66 11 6 C10.34 5.01 9.68 4.02 9 3 C8.67 7.29 8.34 11.58 8 16 C7.67 16 7.34 16 7 16 C7 11.05 7 6.1 7 1 C5.02 1.33 3.04 1.66 1 2 C0.67 1.34 0.34 0.68 0 0 Z " fill="#6F6F6F" transform="translate(95,86)"/>
<path d="M0 0 C1.8871875 0.061875 1.8871875 0.061875 3.8125 0.125 C3.8125 0.455 3.8125 0.785 3.8125 1.125 C1.8325 1.455 -0.1475 1.785 -2.1875 2.125 C-2.5175 3.775 -2.8475 5.425 -3.1875 7.125 C-4.5075 6.795 -5.8275 6.465 -7.1875 6.125 C-7.1875 4.805 -7.1875 3.485 -7.1875 2.125 C-4.09861478 0.06574319 -3.47814073 -0.1140374 0 0 Z " fill="#C4C4C4" transform="translate(119.1875,85.875)"/>
<path d="M0 0 C0.66 0 1.32 0 2 0 C2.66 2.31 3.32 4.62 4 7 C2.02 7 0.04 7 -2 7 C-1.34 4.69 -0.68 2.38 0 0 Z " fill="#0E0E0E" transform="translate(60,87)"/>
<path d="M0 0 C2.475 0.495 2.475 0.495 5 1 C4.67 2.65 4.34 4.3 4 6 C2.68 5.67 1.36 5.34 0 5 C0 3.35 0 1.7 0 0 Z " fill="#E1E1E1" transform="translate(105,86)"/>
<path d="M0 0 C0.33 0 0.66 0 1 0 C1 2.31 1 4.62 1 7 C-0.32 6.67 -1.64 6.34 -3 6 C-2.42655063 3.13275314 -2.1385485 2.1385485 0 0 Z " fill="#0E0E0E" transform="translate(119,95)"/>
</svg>
